# xmcd CD database file
#
# Track frame offsets:
#	150
#	5908
#	22484
#	34530
#	47584
#	57862
#	75815
#	90994
#	104069
#	115340
#	126828
#	144337
#	158276
#
# Disc length: 2257 seconds
#
# Revision: 1
# Processed by: cddbd v1.5PL3 Copyright (c) Steve Scherf et al.
# Submitted via: CDex 1.51
#
DISCID=9c08cf0d
DTITLE=Jimbob Convoy - The Legacy - Best of Jimbob Convoy
DYEAR=2001
DGENRE=Country
TTITLE0=Convoy Kickdown
TTITLE1=Beans 'n' Beer
TTITLE2=The Hook (Down, Down, Down)
TTITLE3=Don't Get Mad (Get Bitter)
TTITLE4=Hear Me Holler
TTITLE5=Farewell
TTITLE6=Transmission Blues
TTITLE7=Go To Hell
TTITLE8=Shake'em Thoughts
TTITLE9=This Ole Town
TTITLE10=Put a Lid On
TTITLE11=Now and Then
TTITLE12=R'n'R
EXTD=YEAR: 2001
EXTT0=
EXTT1=
EXTT2=
EXTT3=
EXTT4=
EXTT5=
EXTT6=
EXTT7=
EXTT8=
EXTT9=
EXTT10=
EXTT11=
EXTT12=
PLAYORDER=
